# xmcd CD database file
# Copyright (C) 1993-1998 Ti Kan
#
# Track frame offsets:
#	182
#	8915
#	34562
#	46347
#	55995
#	87070
#	100850
#	112985
#	131452
#	142617
#	152942
#	182792
#	198407
#	213015
#	242117
#	250362
#	260100
#	273815
#
# Disc length: 3785 seconds
#
# Revision: 1
# Processed by: cddbd v1.4b41PL1 Copyright (c) Steve Scherf et al.
# Submitted via: CDValet v3.31 - Copyright (c) 1997 Greg Leichner
#
DISCID=ef0ec712
DTITLE=What It Is, Is Andy Griffith [CD1] - Andy Griffith
DYEAR=1900
DGENRE=
TTITLE0=The Fishin' Hole
TTITLE1=What It Was, Was Football
TTITLE2=Conversation With A Mule
TTITLE3=Love Poems: Togetherness
TTITLE4=Romeo and Juliet
TTITLE5=Silhouettes
TTITLE6=The Crawdad Song
TTITLE7=Swan Lake
TTITLE8=The Midnight Special
TTITLE9=Andy's Lament
TTITLE10=North Carolina, My Home State
TTITLE11=Police Department Blues
TTITLE12=My Dog Underdog
TTITLE13=Opera Carmen
TTITLE14=Flop-Eared Mule
TTITLE15=The Whistling Ping Pong Game
TTITLE16=How Long, How Long Blues
TTITLE17=The Preacher And The Bear
EXTD=
EXTT0=
EXTT1=
EXTT2=
EXTT3=
EXTT4=
EXTT5=
EXTT6=
EXTT7=
EXTT8=
EXTT9=
EXTT10=
EXTT11=
EXTT12=
EXTT13=
EXTT14=
EXTT15=
EXTT16=
EXTT17=
PLAYORDER=
